<svg xmlns="http://www.w3.org/2000/svg" viewBox="0 0 794.84 795"><g data-name="Layer 2"><g data-name="Layer 1"><path fill="#0d9f16" d="M794.84 397.45c0 219.46-178 397.55-397.42 397.55S0 616.91 0 397.45 177.9 0 397.42 0s397.42 178 397.42 397.45z"/><path fill="#fcfcfc" fill-rule="evenodd" d="M627.41 342.07C601.5 234.58 509 161.25 397.24 160a240.07 240.07 0 0 0-45.36 4.64C195.94 196.21 115.13 369.1 191.14 508.69a13.06 13.06 0 0 1 1 10.62Q177 574.51 162 629.58c-1.63 6-1.63 6 4.41 4.47 38.15-10 76.25-19.91 114.38-30a11 11 0 0 1 8.53 1q73.66 37.65 155 22c129.4-25.21 213.98-156.85 183.09-284.98zm-197.17 247.1c-10.65 1.81-21.35 2.77-27 2.65-41.48-.12-75.29-9.41-106.39-28.23a14.25 14.25 0 0 0-12.1-1.81c-20.9 5.79-41.95 11-62.89 16.53-4.4 1.32-4.82.36-3.7-3.62 5.54-19.91 10.76-39.69 16.5-59.36 1.59-5.55 1-9.77-2.15-14.72-43-69.13-41.2-155.27 6.94-219.22 50-66.6 118-93.87 199.35-76.5 80.2 16.9 131.28 68.65 150.07 148.41 25.66 109.06-48.36 217.53-158.63 235.87z"/><path fill="#fdfdfd" fill-rule="evenodd" d="M459 508.94c-8.41.36-16.44-1.57-24.49-3.75-54.14-15.56-94.77-49.46-127.41-94.1-12.33-16.77-23.76-34.14-27.56-55-4.56-25.1 2.65-46.33 21.32-63.7 5.95-5.43 24-7.84 31.28-4.35a12.19 12.19 0 0 1 5.52 6.28c6.85 16.29 13.6 32.33 20.3 48.62 1.27 3.14.72 6.15-.69 9.29-3.44 7.48-9 13.51-14.57 19.42-4.25 4.35-4.44 8.33-1.3 13.52 19.12 31.85 45.58 55 80.17 68.89 5.16 2 9.05 1.33 12.49-3 5.76-7.11 11.85-14.24 17.31-21.59 3.74-5.19 8-5.91 13.3-3.51a2157.05 2157.05 0 0 1 34.3 16.05c2.56 1.09 5.1 2.42 7.63 3.62 11.58 5.8 11.46 5.92 10.47 18.7-1.93 25-20.66 37.29-42.87 43.44a49.5 49.5 0 0 1-15.2 1.17z"/></g></g></svg>